<svg xmlns="http://www.w3.org/2000/svg" xmlns:xlink="http://www.w3.org/1999/xlink" width="60" height="60" viewBox="0 0 60 60">
  <defs>
    <path id="carrot-a" d="M0,41 L0,19 C0,12 0.0432,8 4,4 C7.9568,1.12056853e-09 12,0 19,0 C26.3531093,0 34,8.57252759e-16 41,0 C48,0 52,0 56,4 C60,8 60,12 60,19 L60,41 C60,48 60,52 56,56 C52,60 48,60 41,60 L19,60 C12,60 8,60 4,56 C0,52 0,48 0,41 Z"/>
  </defs>
  <g fill="none" fill-rule="evenodd">
    <mask id="carrot-b" fill="#fff">
      <use xlink:href="#carrot-a"/>
    </mask>
    <use fill="#D5C295" xlink:href="#carrot-a"/>
    <g fill-rule="nonzero" mask="url(#carrot-b)">
      <g transform="translate(11 7)">
        <path fill="#897256" d="M49.0583496,18.8242188 L38.7290039,8.33520508 C37.2063401,8.96008447 31.6601162,10.6741958 22.090332,13.4775391 C8.95159413,29.5754288 1.89467186,37.8478835 0.919565217,38.2949029 C0.535186957,38.5273778 0.374975917,39.577855 0.0375976562,39.9414063 L13.1105865,52.9982749 L49.0583496,52.9982749 L49.0583496,18.8242188 Z"/>
        <path fill="#6AAC4B" d="M26,10.7446516 C26.2217654,10.7246167 32.4128044,6.77291043 36.0337888,10.8303566 C38.5526345,13.6528715 35.5047706,15.1284076 34.1557846,12.9638922 C32.2508174,9.90763639 26,10.7446516 26,10.7446516 Z M26.8232551,11 C26.8572224,10.8148363 31.3504749,5.43662863 27.3268671,2.68304647 C24.5281185,0.767682695 22.8067662,3.3862927 24.9875933,4.37207812 C28.0668269,5.76409586 26.8232551,11 26.8232551,11 Z"/>
        <path fill="#456957" d="M26,13 C26.0949725,12.7787859 31.8298945,8.62999895 29.4008173,2.4043414 C27.7111431,-1.92645715 25.3144511,0.396398297 26.8123609,3.10546293 C28.9270463,6.93029083 26,13 26,13 Z"/>
        <path fill="#365645" d="M26,13 C26.2406382,12.8526579 31.1198648,4.54969552 37.5764696,7.72168678 C42.0679665,9.92827227 39.4515727,13.4824074 36.6695448,11.4698486 C32.7418289,8.62819512 26,13 26,13 Z"/>
        <path fill="#E67E22" d="M27.7280053,11.3476455 C28.9038915,12.5627315 31.000267,14.5971421 29.4491326,18.263673 C27.8979982,21.9302038 14.9371593,36.3334692 0,40 C3.54824543,24.5648909 17.4868493,11.1719856 21.0350947,9.56914215 C24.5833401,7.96650928 26.552119,10.1325595 27.7280053,11.3476455 Z"/>
        <path fill="#D16718" d="M27.7619629,11.3266602 C26.5502279,10.1002931 24.4182923,7.95691418 20.7618729,9.57442616 C19.8561698,9.97513717 18.3260478,11.4666288 16.4318848,13.1781006 C16.2226825,19.5720453 16.0804463,25.7576666 16,32.1516113 C23.3012864,26.8180096 28.4750526,20.5655997 29.4322162,18.3496784 C31.0308494,14.6491069 28.9736979,12.5530272 27.7619629,11.3266602 Z"/>
        <path fill="#C14C23" d="M20,25 L21.3067973,29 C21.5431721,28.6855854 21.7743417,28.3723423 22,28.0607392 L20,25 Z M19,11.0023091 L23,15 L20.498556,10 C20.0938819,10.220071 19.5861288,10.5579041 19,11.0023091 Z M25.7193722,22 C26.1865523,21.5382807 26.6136221,21.0957996 27,20.6773665 L23,17 L25.7193722,22 Z"/>
        <path fill="#D75E29" d="M15.0049427,14 C14.6755785,14.3180001 14.3405976,14.6488373 14,14.9927369 L17,18 L15.0049427,14 Z M14.5326849,31 C15.0326382,30.6532752 15.5219302,30.3023041 16,29.948379 L12,26 L14.5326849,31 Z M10,18.6190046 L14,23 L11.2608965,17 C10.8425427,17.5192047 10.4213597,18.0587438 10,18.6190046 Z M7,24.4687713 L11,28 L8.16802278,23 C7.77379984,23.4789355 7.38384866,23.9688252 7,24.4687713 Z"/>
      </g>
    </g>
  </g>
</svg>
