<svg xmlns="http://www.w3.org/2000/svg" xmlns:xlink="http://www.w3.org/1999/xlink" width="60" height="60" viewBox="0 0 60 60">
  <defs>
    <path id="chicken-a" d="M0,41 L0,19 C0,12 0.0432,8 4,4 C7.9568,1.12056853e-09 12,0 19,0 C26.3531093,0 34,8.57252759e-16 41,0 C48,0 52,0 56,4 C60,8 60,12 60,19 L60,41 C60,48 60,52 56,56 C52,60 48,60 41,60 L19,60 C12,60 8,60 4,56 C0,52 0,48 0,41 Z"/>
  </defs>
  <g fill="none" fill-rule="evenodd">
    <mask id="chicken-b" fill="#fff">
      <use xlink:href="#chicken-a"/>
    </mask>
    <use fill="#E67E22" xlink:href="#chicken-a"/>
    <g fill-rule="nonzero" mask="url(#chicken-b)">
      <g transform="translate(12 9)">
        <polygon fill="#AD481C" points="47.987 21.017 33.682 6.775 3.423 38.854 15.591 51.057 47.987 51.057"/>
        <path fill="#F0DEB4" d="M8.51645226,33.9778202 L16,26.494455 L13.505545,24 L6.02217981,31.4833651 C4.64448686,30.1056722 2.41096266,30.1056722 1.03326971,31.4833651 C-0.344423237,32.8610581 -0.344423237,35.0945823 1.03326971,36.4722752 C1.48811837,36.9271239 2.03700439,37.2285912 2.61693186,37.3830681 C2.77140876,37.9629956 3.0728761,38.5118816 3.52772476,38.9667303 C4.9054177,40.3444232 7.13894191,40.3444232 8.51663485,38.9667303 C9.8941452,37.5892199 9.8941452,35.3555131 8.51645226,33.9778202 Z"/>
        <path fill="#79302A" d="M19.7579912,3.21821348 C23.9235613,-0.936580066 28.2341489,1.28564891 32.399535,5.44044246 C36.564921,9.59523601 39.0079492,14.1094484 34.8423791,18.2644255 C30.676809,22.4194026 16.3809993,29.9422333 12.2156132,25.7874397 C8.05022712,21.6326462 15.5926051,7.37319059 19.7579912,3.21821348 Z"/>
        <path fill="#68231F" d="M32.2634277,5.29980469 C27.8959831,1.13599666 24.1205673,-1.01170842 19.7529297,3.15209961 C18.8786303,3.98563386 18.0804918,5.2178547 17.0493164,6.70059274 L17.0493164,26.9213867 C23.3114301,26.3398811 31.4709114,21.4161852 34.7377152,18.3016994 C39.1053528,14.1378914 36.6308724,9.46361272 32.2634277,5.29980469 Z"/>
      </g>
    </g>
  </g>
</svg>
