<svg xmlns="http://www.w3.org/2000/svg" xmlns:xlink="http://www.w3.org/1999/xlink" width="60" height="60" viewBox="0 0 60 60">
  <defs>
    <path id="chocolate-a" d="M0,41 L0,19 C0,12 0.0432,8 4,4 C7.9568,1.12056853e-09 12,0 19,0 C26.3531093,0 34,8.57252759e-16 41,0 C48,0 52,0 56,4 C60,8 60,12 60,19 L60,41 C60,48 60,52 56,56 C52,60 48,60 41,60 L19,60 C12,60 8,60 4,56 C0,52 0,48 0,41 Z"/>
  </defs>
  <g fill="none" fill-rule="evenodd">
    <mask id="chocolate-b" fill="#fff">
      <use xlink:href="#chocolate-a"/>
    </mask>
    <use fill="#AE9676" xlink:href="#chocolate-a"/>
    <g fill-rule="nonzero" mask="url(#chocolate-b)">
      <g transform="translate(17 10)">
        <path fill="#897256" d="M43.0058594,19.2456055 L24.3103027,0.486328125 L0.654296875,37.4296875 L13.9526367,50.1174316 L43.0058594,50.1174316 C43.0380737,29.9872894 43.0380737,19.6966807 43.0058594,19.2456055 Z"/>
        <path fill="#634A39" d="M1.95702243,38 L23.0429776,38 C24.123857,38 25,37.1121773 25,36.016889 L25,1.98311103 C25,0.887822666 24.123857,0 23.0429776,0 L1.95702243,0 C0.876143031,0 3.07003334e-08,0.887822666 3.07003334e-08,1.98311103 L3.07003334e-08,36.016889 C-0.000189364674,37.1121773 0.875953635,38 1.95702243,38 Z"/>
        <path fill="#543F31" d="M22.9749295,0 L12,0 L12,38 L22.9749295,38 C24.0933924,38 25,37.1121818 25,36.016899 L25,1.98329293 C25,0.887818182 24.0931964,0 22.9749295,0 Z"/>
        <path fill="#4C2F15" d="M6,12 L6,7 L0,7 L0,5 L6,5 L6,0 L8,0 L8,5 L12,5 L12,0 L14,0 L14,5 L19,5 L19,0 L21,0 L21,5 L25,5 L25,7 L21,7 L21,12 L25,12 L25,14 L21,14 L21,15 L19,15 L19,14 L14,14 L14,15 L12,15 L12,14 L0,14 L0,12 L6,12 Z M8,12 L12,12 L12,7 L8,7 L8,12 Z M14,12 L19,12 L19,7 L14,7 L14,12 Z"/>
        <path fill="#79302A" d="M0,10 L0,35.9821315 C0,37.0966167 0.876143001,38 1.9570224,38 L23.0429776,38 C24.123857,38 25,37.0966167 25,35.9821315 L25,15.7048284 L0,10 Z"/>
        <path fill="#6D2925" d="M12,13 L12,38 L22.9749295,38 C24.0933924,38 25,37.1024308 25,35.9951183 L25,15.8483174 L12,13 Z"/>
        <rect width="13" height="6" x="6" y="25" fill="#B85627"/>
        <rect width="7" height="6" x="12" y="25" fill="#AA4922"/>
      </g>
    </g>
  </g>
</svg>
