<svg xmlns="http://www.w3.org/2000/svg" xmlns:xlink="http://www.w3.org/1999/xlink" width="60" height="60" viewBox="0 0 60 60">
  <defs>
    <path id="egg-a" d="M0,41 L0,19 C0,12 0.0432,8 4,4 C7.9568,1.12056853e-09 12,0 19,0 C26.3531093,0 34,8.57252759e-16 41,0 C48,0 52,0 56,4 C60,8 60,12 60,19 L60,41 C60,48 60,52 56,56 C52,60 48,60 41,60 L19,60 C12,60 8,60 4,56 C0,52 0,48 0,41 Z"/>
  </defs>
  <g fill="none" fill-rule="evenodd">
    <mask id="egg-b" fill="#fff">
      <use xlink:href="#egg-a"/>
    </mask>
    <use fill="#17AB93" xlink:href="#egg-a"/>
    <g fill-rule="nonzero" mask="url(#egg-b)">
      <g transform="translate(17 9)">
        <path fill="#0D725F" d="M18.6208926,3.6730604 C18.4092416,7.64453691 14.7126941,20.0560477 7.53125,40.9075928 L17.5539551,51.0466919 L43.0253906,51.0466919 L43.0253906,27.4422957 L18.6208926,3.6730604 Z"/>
        <path fill="#ECF0F1" d="M23.8726644,16.6314295 C23.8726644,23.5512215 18.9642819,29.160698 12.9095772,29.160698 C6.85487248,29.160698 1.94648993,23.5510403 1.94648993,16.6314295 C1.94648993,9.71181879 6.85487248,0.969798658 12.9095772,0.969798658 C18.9642819,0.969798658 23.8726644,9.71163758 23.8726644,16.6314295 Z"/>
        <path fill="#D9DBDB" d="M12.9095772,0.969798658 C12.8490537,0.969798658 12.7887114,0.972154362 12.7283691,0.973785235 L12.7283691,29.1552617 C12.7888926,29.156349 12.8486913,29.1605168 12.9095772,29.1605168 C18.9642819,29.1605168 23.8726644,23.5510403 23.8726644,16.6312483 C23.8726644,9.71163758 18.9641007,0.969798658 12.9095772,0.969798658 Z"/>
        <path fill="#314B5A" d="M24.0538725,19.9578658 L1.76528188,19.9578658 C1.76528188,25.5358121 5.10893289,32.3148054 9.69802685,34.5913221 C8.82007383,35.3478658 7.26965772,38.399953 6.96631544,39.6202081 C6.77169799,40.4032081 7.37566443,41.1592081 8.18258389,41.1592081 L17.6363893,41.1592081 C18.4433087,41.1592081 19.0472752,40.4032081 18.8526577,39.6202081 C18.5494966,38.399953 16.9988993,35.3478658 16.1209463,34.5913221 C20.7102215,32.3148054 24.0538725,25.5358121 24.0538725,19.9578658 Z"/>
        <path fill="#263A44" d="M24.0538725,19.9578658 L12.7283691,19.9578658 L12.7283691,41.1592081 L17.6363893,41.1592081 C18.4433087,41.1592081 19.0472752,40.4033893 18.8526577,39.6202081 C18.5494966,38.399953 16.9988993,35.3478658 16.1209463,34.5913221 C20.7102215,32.3148054 24.0538725,25.5358121 24.0538725,19.9578658 Z"/>
        <path fill="#BFF796" d="M24.2803826,21.2716242 L1.53877181,21.2716242 C0.713187919,21.2716242 0.0438053691,20.6022416 0.0438053691,19.7766577 C0.0438053691,18.9510738 0.713187919,18.2816913 1.53877181,18.2816913 L24.2803826,18.2816913 C25.1059664,18.2816913 25.775349,18.9510738 25.775349,19.7766577 C25.775349,20.6022416 25.1059664,21.2716242 24.2803826,21.2716242 Z"/>
        <path fill="#A7DB7D" d="M24.2803826,18.2816913 L12.7283691,18.2816913 L12.7283691,21.2716242 L24.2803826,21.2716242 C25.1059664,21.2716242 25.775349,20.6022416 25.775349,19.7766577 C25.775349,18.9508926 25.1059664,18.2816913 24.2803826,18.2816913 Z"/>
      </g>
    </g>
  </g>
</svg>
