<svg xmlns="http://www.w3.org/2000/svg" xmlns:xlink="http://www.w3.org/1999/xlink" width="60" height="60" viewBox="0 0 60 60">
  <defs>
    <path id="eggplant-a" d="M0,41 L0,19 C0,12 0.0432,8 4,4 C7.9568,1.12056853e-09 12,0 19,0 C26.3531093,0 34,8.57252759e-16 41,0 C48,0 52,0 56,4 C60,8 60,12 60,19 L60,41 C60,48 60,52 56,56 C52,60 48,60 41,60 L19,60 C12,60 8,60 4,56 C0,52 0,48 0,41 Z"/>
  </defs>
  <g fill="none" fill-rule="evenodd">
    <mask id="eggplant-b" fill="#fff">
      <use xlink:href="#eggplant-a"/>
    </mask>
    <use fill="#BFF796" xlink:href="#eggplant-a"/>
    <g fill-rule="nonzero" mask="url(#eggplant-b)">
      <g transform="translate(12 14)">
        <path fill="#A3D879" d="M47.9875488,14.0441895 L34.430542,0.348999023 L3.67724609,31.3232422 L18.6345215,45.9381787 C19.0485921,45.964561 28.8329346,45.964561 47.9875488,45.9381787 C48.0876913,25.476834 48.0876913,14.8455043 47.9875488,14.0441895 Z"/>
        <path fill="#5E345E" d="M27.7898532,15.9929016 C28.8476148,14.1186948 31.2851499,12.4975175 32.181031,11.601614 C34.606323,9.17645567 34.606323,5.24419715 32.181031,2.81903881 C29.7557389,0.393686122 25.8237731,0.393686122 23.398481,2.81884447 C22.5025999,3.71474798 20.8814632,6.15234404 19.0073033,7.21013207 C14.0562483,10.0045348 7.18108956,10.2534833 3.63779231,13.7968691 C-1.21259744,18.6473802 -1.21259744,26.5115085 3.63779231,31.3620196 C8.48818205,36.2125306 16.3525024,36.2127249 21.2028922,31.3622139 C24.7463837,27.8190224 24.995326,20.9440803 27.7898532,15.9929016 Z"/>
        <path fill="#4B274C" d="M32.1597592,2.81875428 C29.7059082,0.393878121 25.7276415,0.393683804 23.2737905,2.81855997 C22.3944939,3.68754355 20.8240686,6.00282518 19,7.10673747 L19,33 C19.7263242,32.5340289 20.41529,31.9879994 21.0523475,31.3586081 C24.6373688,27.8156346 24.8894391,20.9414925 27.7168732,15.9908899 C28.7870904,14.1169011 31.2533287,12.4959125 32.1597592,11.6001133 C34.6134136,9.17543141 34.6134136,5.24382476 32.1597592,2.81875428 Z"/>
        <path fill="#27AE60" d="M33.001709,3.62011719 L34.7594737,1.80217552 C35.0801754,1.48146127 35.0801754,0.961616437 34.7594737,0.640902179 L34.3591228,0.240535693 C34.0384211,-0.0801785645 33.5184211,-0.0801785645 33.1978947,0.240535693 L31.4234634,2.07514467 C28.5511827,-0.228804798 26,1.07126984 26,1.07126984 L27.9821053,3.05345238 L27.9821053,7.01781746 L31.9463158,7.01781746 L33.9284211,9 C34.5833333,6.62569691 33.9634634,4.74963491 33.001709,3.62011719 Z"/>
      </g>
    </g>
  </g>
</svg>
