<svg xmlns="http://www.w3.org/2000/svg" xmlns:xlink="http://www.w3.org/1999/xlink" width="60" height="60" viewBox="0 0 60 60">
  <defs>
    <path id="jam-a" d="M0,41 L0,19 C0,12 0.0432,8 4,4 C7.9568,1.12056853e-09 12,0 19,0 C26.3531093,0 34,8.57252759e-16 41,0 C48,0 52,0 56,4 C60,8 60,12 60,19 L60,41 C60,48 60,52 56,56 C52,60 48,60 41,60 L19,60 C12,60 8,60 4,56 C0,52 0,48 0,41 Z"/>
  </defs>
  <g fill="none" fill-rule="evenodd">
    <mask id="jam-b" fill="#fff">
      <use xlink:href="#jam-a"/>
    </mask>
    <use fill="#5E4534" xlink:href="#jam-a"/>
    <g fill-rule="nonzero" mask="url(#jam-b)">
      <g transform="translate(16 13)">
        <path fill="#503B2C" d="M24.5854492,0.329101562 L3.14453125,32.9152832 L17.6142578,46.947998 C17.7774128,46.9524271 26.5389688,46.9524271 43.8989258,46.947998 L43.8989258,19.6442871 L24.5854492,0.329101562 Z"/>
        <path fill="#D95459" d="M5.84854545,34 L22.1514545,34 C24.2769091,34 26,32.3343455 26,30.2797394 L26,8.72026061 C26,6.66565455 24.2769091,5 22.1514545,5 L5.84854545,5 C3.72309091,5 2,6.66565455 2,8.72026061 L2,30.2797394 C2.00018182,32.3343455 3.72309091,34 5.84854545,34 Z"/>
        <path fill="#B73D46" d="M22.1318795,5 L14,5 L14,34 L22.1318795,34 C24.2681449,34 26,32.3343455 26,30.2797394 L26,8.72026061 C26.0001827,6.66565455 24.2681449,5 22.1318795,5 Z"/>
        <path fill="#ECF0F1" d="M4.13887931,5 C3.5097931,5 3,4.53637931 3,3.96465517 L3,1.03534483 C3,0.46362069 3.5097931,0 4.13887931,0 L23.8611207,0 C24.4900172,0 25,0.463448276 25,1.03534483 L25,3.96465517 C25,4.53637931 24.4902069,5 23.8611207,5 L4.13887931,5 Z M21.6969091,26 L6.30290909,26 C5.58327273,26 5,25.4165543 5,24.6969288 L5,15.3030712 C5,14.5834457 5.58345454,14 6.30290909,14 L21.6969091,14 C22.4165454,14 23,14.5834457 23,15.3030712 L23,24.6969288 C23.0001818,25.4165543 22.4167272,26 21.6969091,26 Z"/>
        <path fill="#D6D8D8" d="M21.6880568,14 C22.4127649,14 23.000183,14.5832727 23,15.3029091 L23,24.6969091 C23,25.4167273 22.4125818,26 21.6880568,26 L14,26 L14,14 L21.6880568,14 Z M23.8545243,0 C24.4872541,0 25.0001907,0.46362069 24.9999999,1.03534483 L24.9999999,3.96465517 C24.9999999,4.53637931 24.4872541,5 23.8545243,5 L14,5 L14,0 L23.8545243,0 Z"/>
        <path fill="#C63C22" d="M11,19.1428571 C11,17.5806286 12.3430909,17 14,17 C15.6569091,17 17,17.5806286 17,19.1428571 C17,20.7050857 15.6569091,23 14,23 C12.3430909,23 11,20.7050857 11,19.1428571 Z"/>
        <path fill="#AF3120" d="M17,19.1428939 C17,17.5990222 15.6621923,17.0142379 14,17 L14,23 C15.6623778,22.9447637 17,20.6869371 17,19.1428939 Z"/>
        <path fill="#BDC3C7" d="M23.1808426,5 L27.5147525,7.07077704 C28.2340564,7.4144662 28.130926,8.4227651 27.35597,8.62834706 C23.5504075,9.63814171 14.5109357,11.1972075 0.703119412,8.48807934 C-0.11357566,8.32786834 -0.261053816,7.27270273 0.484684784,6.91638283 L4.49563846,5 L23.1808426,5 Z"/>
        <path fill="#ABB3B7" d="M27.5178914,7.07138969 L23.2120161,5 L14,5 L14,9.98330476 C20.4665885,10.1307624 24.9614939,9.27028788 27.3601361,8.62942052 C28.1300791,8.42377774 28.2325423,7.41518053 27.5178914,7.07138969 Z"/>
        <path fill="#27AE60" d="M14.0061541,18.864223 C13.9680323,18.3615062 14.0200659,16.4839421 16.8345788,16.0020426 C16.9229275,15.9868862 17.0033267,16.0581029 16.9998939,16.1484933 C16.9742385,16.8067911 16.7017846,19.112751 14.1414777,18.9956999 C14.0701121,18.9925956 14.0113936,18.9358049 14.0061541,18.864223 Z"/>
        <path fill="#345F41" d="M14.9972346,19.8088934 C15.0252872,19.2404832 14.8890314,17.4880543 12.229287,17.0031293 C12.1050537,16.9805452 11.992843,17.0833158 12.0003571,17.2109543 C12.043438,17.9478575 12.3775654,20.0799033 14.8083799,19.9976868 C14.9098204,19.9941343 14.9919747,19.9114103 14.9972346,19.8088934 Z"/>
      </g>
    </g>
  </g>
</svg>
