<svg xmlns="http://www.w3.org/2000/svg" xmlns:xlink="http://www.w3.org/1999/xlink" width="60" height="60" viewBox="0 0 60 60">
  <defs>
    <path id="milk-a" d="M0,41 L0,19 C0,12 0.0432,8 4,4 C7.9568,1.12056853e-09 12,0 19,0 C26.3531093,0 34,8.57252759e-16 41,0 C48,0 52,0 56,4 C60,8 60,12 60,19 L60,41 C60,48 60,52 56,56 C52,60 48,60 41,60 L19,60 C12,60 8,60 4,56 C0,52 0,48 0,41 Z"/>
  </defs>
  <g fill="none" fill-rule="evenodd">
    <mask id="milk-b" fill="#fff">
      <use xlink:href="#milk-a"/>
    </mask>
    <use fill="#0074A3" xlink:href="#milk-a"/>
    <g fill-rule="nonzero" mask="url(#milk-b)">
      <g transform="translate(20 10)">
        <polygon fill="#005C83" points="40.02 23.446 16.708 .574 14.446 1.564 .483 37.928 14.446 50 40.02 50"/>
        <path fill="#B9EAFF" d="M14.6571085,3.89015016 L14.6571085,1 L3.342777,1 L3.342777,3.89015016 C3.342777,4.94840681 2.71420302,5.93519248 1.6713885,6.51435049 C0.628459479,7.0935085 0,8.08029417 0,9.13855083 L0,36.3429327 C0,37.8103729 1.40072386,39 3.12855807,39 L14.8714419,39 C16.5992761,39 18,37.8103729 18,36.3429327 L18,9.13855083 C18,8.08029417 17.371426,7.0935085 16.3286115,6.51435049 C15.2856825,5.93519248 14.6571085,4.94840681 14.6571085,3.89015016 Z"/>
        <path fill="#35CCFF" d="M16.3630247,6.51433638 C15.3415692,5.93517985 14.7260494,4.94839671 14.7260494,3.89014276 L14.7260494,1 L9,1 L9,39 L14.9358577,39 C16.6281165,39 18,37.8103759 18,36.3429395 L18,9.13853 C18,8.08027606 17.3844802,7.09349291 16.3630247,6.51433638 Z"/>
        <path fill="#FFF" d="M15.5455025,2 L2.45449748,2 C1.6511927,2 1,1.55229025 1,1 C1,0.447709751 1.6511927,0 2.45449748,0 L15.5455025,0 C16.3488073,0 17,0.447709751 17,1 C17,1.55229025 16.3488073,2 15.5455025,2 Z M5.03571565,14.6582862 C6.2398309,15.4365461 7.59165252,16.2006836 8.98675537,16.2006836 C9.6652832,16.2006836 10.4266081,39 8.98675537,39 L2.60711514,39 C1.16726246,39 0,37.80545 0,36.3319374 L0,14.5692369 C1.64918519,13.8335058 3.56847991,13.7573452 5.03571565,14.6582862 Z"/>
        <path fill="#E0E0E0" d="M15.5840878,0 C16.3660823,0 17,0.447689447 17,1.00004535 C17,1.55231055 16.3660823,2 15.5840878,2 L9,2 L9,0 L15.5840878,0 Z M9,16.1900635 C12.1297302,16.6169434 15.383172,14.7083996 18,13.5004883 L18,36.4041543 C18,37.8377831 16.6281165,39 14.9358577,39 L9,39 L9,16.1900635 Z"/>
      </g>
    </g>
  </g>
</svg>
