<svg xmlns="http://www.w3.org/2000/svg" xmlns:xlink="http://www.w3.org/1999/xlink" width="60" height="60" viewBox="0 0 60 60">
  <defs>
    <path id="icon:pie-a" d="M0,41 L0,19 C0,12 0.0432,8 4,4 C7.9568,1.12056853e-09 12,0 19,0 C26.3531093,0 34,8.57252759e-16 41,0 C48,0 52,0 56,4 C60,8 60,12 60,19 L60,41 C60,48 60,52 56,56 C52,60 48,60 41,60 L19,60 C12,60 8,60 4,56 C0,52 0,48 0,41 Z"/>
  </defs>
  <g fill="none" fill-rule="evenodd">
    <mask id="icon:pie-b" fill="#fff">
      <use xlink:href="#icon:pie-a"/>
    </mask>
    <use fill="#4F2B4F" xlink:href="#icon:pie-a"/>
    <g fill-rule="nonzero" mask="url(#icon:pie-b)">
      <g transform="translate(7 24)">
        <polygon fill="#462147" points="42.98 8.109 0 10.99 22.555 36.046 53.347 36.046 53.347 23.918 53.08 15.673"/>
        <path fill="#EF9789" d="M43,8.47630496 C43,11.2565067 34.0456566,10.9933312 23,10.9933312 C11.9543434,10.9933312 3,11.2565067 3,8.47630496 C3,5.69610325 11.9543434,0 23,0 C34.0456566,0 43,5.69610325 43,8.47630496 Z"/>
        <path fill="#EF717A" d="M23.0167536,0 C23.0111018,0 23.0056518,0.000205605806 23,0.000205605806 L23,10.9933312 C23.0056518,10.9933312 23.0111018,10.9933312 23.0167536,10.9933312 C34.0531575,10.9933312 43,11.2565067 43,8.47630496 C43,5.69610325 34.0531575,0 23.0167536,0 Z"/>
        <path fill="#9B59B6" d="M8.71414141,15 L37.2856566,15 C40.4416162,15 43,12.7614368 43,10 L3,10 C2.99979798,12.7614368 5.55818182,15 8.71414141,15 Z"/>
        <path fill="#8E44AD" d="M23,10 L23,15 L37.2904434,15 C40.4437593,15 43,12.7614368 43,10 L23,10 Z"/>
        <path fill="#D95459" d="M15.9327743,0.755175324 C16.924446,0.554750762 17.9483331,0.385093128 19,0.253234863 L17.7426686,4.12782298 C17.5479759,4.76689603 16.8399391,5.13631894 16.1610829,4.95303595 L15.9264713,4.88974398 C15.247615,4.706461 14.855195,4.03991747 15.0498876,3.40084441 L15.9327743,0.755175324 Z M2.82826342,13 C1.52915679,12.8295311 0.720425211,12.1204613 0.222916695,11.3859596 C-0.274999447,10.6507025 0.111634578,9.52540666 0.88388356,9.43274412 C3.46334598,9.12328146 3.92946723,8 7.31276972,8 C11.2365853,8 11.2365853,9.51080224 15.160401,9.51080224 C19.0836052,9.51080224 19.0836052,8 23.0068093,8 C26.9302173,8 26.9302173,9.51080224 30.8536253,9.51080224 C34.7768295,9.51080224 34.7768295,8 38.7000337,8 C42.0786485,8 42.5476231,9.12051166 45.1185254,9.43148512 C45.8734502,9.52288865 46.2608995,10.599587 45.8035422,11.3471824 C45.2891172,12.1879438 44.4616348,13 43.1833171,13 C40.5337429,13 2.82826342,13 2.82826342,13 Z M23,0 C23.6723077,0 24.3387692,0.01 25,0.0275510204 L25,3.67346939 C25,4.40612245 24.1046154,5 23,5 C21.8953846,5 21,4.40612245 21,3.67346939 L21,0.0275510204 C21.6612308,0.01 22.3276923,0 23,0 Z"/>
        <path fill="#C64751" d="M45.1190279,9.43148512 C42.5493835,9.12051166 42.0806384,8 38.7036766,8 C34.782392,8 34.782392,9.51080224 30.8611073,9.51080224 C26.9396189,9.51080224 26.9396189,8 23.0181305,8 C23.0120191,8 23.0063151,8.0002518 23,8.0002518 L23,13 C32.4392772,13 41.9046297,13 43.1845628,13 C44.462255,13 45.2893326,12.1879438 45.8035059,11.3471824 C46.2608431,10.599587 45.8735834,9.52288865 45.1190279,9.43148512 Z M28.2573314,4.12786131 L27,0.242248535 C28.0514335,0.374320759 29.075554,0.573387957 30.0672257,0.773803711 L30.9501124,3.4009147 C31.144805,4.03995966 30.752385,4.7064739 30.0735287,4.88974883 L29.8389171,4.95303801 C29.1600609,5.13631295 28.4520241,4.76690628 28.2573314,4.12786131 Z M23.0252165,0 C23.6890475,0 24.3471062,0.01 25,0.0275510204 L25,3.67346939 C25,4.40612245 24.1159046,5 23.0252165,5 C23.0167097,5 23.0085068,4.99918367 23,4.99918367 L23,0.000204081633 C23.0085068,0.000204081633 23.0167097,0 23.0252165,0 Z"/>
      </g>
    </g>
  </g>
</svg>
