<svg xmlns="http://www.w3.org/2000/svg" xmlns:xlink="http://www.w3.org/1999/xlink" width="60" height="60" viewBox="0 0 60 60">
  <defs>
    <path id="steak-a" d="M0,41 L0,19 C0,12 0.0432,8 4,4 C7.9568,1.12056853e-09 12,0 19,0 C26.3531093,0 34,8.57252759e-16 41,0 C48,0 52,0 56,4 C60,8 60,12 60,19 L60,41 C60,48 60,52 56,56 C52,60 48,60 41,60 L19,60 C12,60 8,60 4,56 C0,52 0,48 0,41 Z"/>
  </defs>
  <g fill="none" fill-rule="evenodd">
    <mask id="steak-b" fill="#fff">
      <use xlink:href="#steak-a"/>
    </mask>
    <use fill="#F86E51" xlink:href="#steak-a"/>
    <g mask="url(#steak-b)">
      <g transform="translate(9 10)">
        <polygon fill="#E04332" fill-rule="nonzero" points="50.98 21.419 34.063 3.803 2.996 34.437 18.959 49.961 50.98 49.961"/>
        <g>
          <path fill="#662621" fill-rule="nonzero" d="M32.5,4.89108911 C27.5309259,-0.47029703 17.8087037,0.47029703 16.8698148,8.21608911 C15.8188889,16.8872376 11.7183333,19.2804851 5.34092593,21.8475545 C-1.49944444,24.6008614 0.353703704,37.2573069 13.9592593,36.4773663 C31.6975926,35.460396 47.4033333,20.9711089 32.5,4.89108911 Z"/>
          <path fill="#935733" fill-rule="nonzero" d="M12.7577778,37.9232475 C4.9062963,37.9232475 1.13388889,33.5594554 0.287592593,29.6569307 C-0.568703704,25.7077525 1.29888889,21.9570396 4.82925926,20.5359901 C10.8131481,18.127505 14.5168519,16.0849109 15.4914815,8.04377228 C15.9283333,4.43772277 18.0957407,1.73182178 21.437963,0.620415842 C25.557963,-0.74890099 30.4096296,0.57790099 33.5111111,3.92415842 C40.9787037,11.9814752 40.5040741,18.8737723 38.7905556,23.2368119 C37.2053704,27.2734653 33.9096296,30.8189406 29.2594444,33.4894752 C24.8638889,36.0140297 19.4577778,37.5754158 14.0374074,37.8861881 C13.5998148,37.9108317 13.1725926,37.9232475 12.7577778,37.9232475 Z M24.7592593,2.91546535 C23.9175926,2.91546535 23.087037,3.04094059 22.3022222,3.3020495 C19.9924074,4.07013861 18.5527778,5.87664356 18.2481481,8.38840594 C17.7135185,12.7988515 16.3922222,15.9528515 14.0892593,18.3139307 C12.0437037,20.4112673 9.42092593,21.7228317 5.85240741,23.1593069 C3.2287037,24.2154059 2.52944444,26.8787921 3.00037037,29.0498713 C3.65648148,32.0765149 6.90185185,35.4716832 13.8809259,35.0685446 C24.2851852,34.4722079 33.4674074,29.1766634 36.2107407,22.1908713 C38.2385185,17.0270099 36.6057407,11.3791188 31.4887037,5.85839604 C29.7466667,3.97852475 27.2083333,2.91546535 24.7592593,2.91546535 Z"/>
        </g>
        <g transform="translate(20)">
          <path fill="#591F1C" fill-rule="nonzero" d="M13.125,4.88324873 C9.60963889,1.27678173 3.829,0.527015228 0.129694444,2.78664467 L0.129694444,35.5126751 C15.7352222,31.9572944 26.9218056,19.0377208 13.125,4.88324873 Z"/>
          <path fill="#7C4529" fill-rule="nonzero" d="M14.1868611,3.91749239 C10.9303056,0.576786802 5.83605556,-0.748076142 1.51005556,0.619045685 C1.02511111,0.772492386 0.566222222,0.959182741 0.129694444,1.17141624 L0.129694444,4.54592893 C0.760277778,4.00088325 1.52658333,3.5781066 2.41752778,3.29656853 C3.24138889,3.03587817 4.11366667,2.91060406 4.99741667,2.91060406 C7.56894444,2.91060406 10.2341944,3.97195939 12.0633333,5.84881726 C17.4362222,11.3608782 19.1506389,16.9995279 17.0214722,22.1551117 C14.7357778,27.6891472 8.19213889,32.1580711 0.129888889,34.0664822 L0.129694444,36.9530457 C3.57019444,36.1983959 6.85183333,35.0033147 9.72280556,33.4354162 C14.6053056,30.7691624 18.0660278,27.2293706 19.7304722,23.1991878 C21.5294722,18.8431421 22.0278333,11.9618934 14.1868611,3.91749239 Z"/>
        </g>
        <circle cx="24.5" cy="11.5" r="3.5" fill="#E8A89E" fill-rule="nonzero"/>
      </g>
    </g>
  </g>
</svg>
