<svg xmlns="http://www.w3.org/2000/svg" xmlns:xlink="http://www.w3.org/1999/xlink" width="60" height="60" viewBox="0 0 60 60">
  <defs>
    <path id="taco-a" d="M0,41 L0,19 C0,12 0.0432,8 4,4 C7.9568,1.12056853e-09 12,0 19,0 C26.3531093,0 34,8.57252759e-16 41,0 C48,0 52,0 56,4 C60,8 60,12 60,19 L60,41 C60,48 60,52 56,56 C52,60 48,60 41,60 L19,60 C12,60 8,60 4,56 C0,52 0,48 0,41 Z"/>
  </defs>
  <g fill="none" fill-rule="evenodd">
    <mask id="taco-b" fill="#fff">
      <use xlink:href="#taco-a"/>
    </mask>
    <use fill="#590F38" xlink:href="#taco-a"/>
    <g fill-rule="nonzero" mask="url(#taco-b)">
      <g transform="translate(9 15)">
        <path fill="#3F0729" d="M50.9963379,20.8166504 L37.6853027,7.6003418 L2.03735352,26.045166 L21.9008789,45.0090332 C22.006015,45.0107649 31.7045013,45.0107649 50.9963379,45.0090332 L50.9963379,20.8166504 Z"/>
        <path fill="#97CC52" d="M3.27955483,26 C2.65332099,24.0607392 0,22.3594846 0,20.2102969 C0,18.0612206 2.65332099,16.359966 3.27955483,14.4207052 C3.92861723,12.4108001 2.79904696,9.47070956 4.00984699,7.79775723 C5.23283703,6.10809098 8.37098779,6.28570428 10.0514355,5.05600521 C11.7152605,3.83845159 12.5102705,0.775903655 14.509099,0.123280652 C16.4377795,-0.506388563 18.8625933,1.48089695 20.9999446,1.48089695 C23.1372959,1.48089695 25.5621097,-0.506388563 27.4907902,0.123280652 C29.4897295,0.775903655 30.2847395,3.83845159 31.9485645,5.05600521 C33.6290122,6.28570428 36.7672738,6.10809098 37.990153,7.79775723 C39.2010639,9.47070956 38.0713828,12.4108001 38.7204452,14.4205937 C39.346679,16.3598546 42,18.0611091 42,20.2102969 C42,22.3593732 39.346679,24.0606277 38.7204452,25.9998886 L3.27955483,26 Z"/>
        <path fill="#60C344" d="M41,20.2103835 C41,18.0611866 38.3513404,16.3599247 37.7262067,14.420767 C37.0782846,12.4109648 38.205981,9.47075014 36.9971975,7.79779065 C35.7763561,6.10811716 32.6437184,6.28573122 30.9662229,5.05602687 C29.305321,3.83846804 28.5117077,0.77590698 26.5162801,0.12328118 C24.5909879,-0.506390733 22.1705446,1.4809033 20.0368376,1.4809033 C20.0245584,1.4809033 20.0122792,1.48001189 20,1.47990046 L20,26 L37.7262067,26 C38.3513404,24.0608423 41,22.3595804 41,20.2103835 Z"/>
        <path fill="#FF6838" d="M20,12 C17.2385763,12 15,9.76142375 15,7 C15,4.23857625 17.2385763,2 20,2 C22.7614237,2 25,4.23857625 25,7 C25,9.76142375 22.7614237,12 20,12 Z M10,17 C7.23857625,17 5,14.7614237 5,12 C5,9.23857625 7.23857625,7 10,7 C12.7614237,7 15,9.23857625 15,12 C15,14.7614237 12.7614237,17 10,17 Z"/>
        <path fill="#AE4E32" d="M20.0356112,2 C22.77735,2 25,4.23867737 25,7.00005385 C25,9.76143034 22.77735,12 20.0356112,12 C20.0236338,12 20.0119773,11.9991383 20,11.9990306 L20,2.00086165 C20.0118704,2.00086165 20.0236338,2 20.0356112,2 Z M31,17 C28.2385763,17 26,14.7614237 26,12 C26,9.23857625 28.2385763,7 31,7 C33.7614237,7 36,9.23857625 36,12 C36,14.7614237 33.7614237,17 31,17 Z"/>
        <path fill="#FFECB3" d="M37,26 L2,26 L2,23.8638848 C2,14.5502252 9.83502394,7 19.5,7 C29.1649761,7 37,14.5502252 37,23.8638848 L37,26 Z"/>
        <path fill="#FFD863" d="M36.9998944,23.8638848 C36.9998944,14.5502252 29.404525,7 20.0351774,7 C20.0234516,7 20.0117258,7.00042004 20,7.00042004 L20,26 L37,26 L37,23.8638848 L36.9998944,23.8638848 Z"/>
      </g>
    </g>
  </g>
</svg>
