<svg xmlns="http://www.w3.org/2000/svg" xmlns:xlink="http://www.w3.org/1999/xlink" width="60" height="60" viewBox="0 0 60 60">
  <defs>
    <path id="icon:cheese-a" d="M0,41 L0,19 C0,12 0.0432,8 4,4 C7.9568,1.12056853e-09 12,0 19,0 C26.3531093,0 34,8.57252759e-16 41,0 C48,0 52,0 56,4 C60,8 60,12 60,19 L60,41 C60,48 60,52 56,56 C52,60 48,60 41,60 L19,60 C12,60 8,60 4,56 C0,52 0,48 0,41 Z"/>
  </defs>
  <g fill="none" fill-rule="evenodd">
    <mask id="icon:cheese-b" fill="#fff">
      <use xlink:href="#icon:cheese-a"/>
    </mask>
    <use fill="#B85627" xlink:href="#icon:cheese-a"/>
    <g fill-rule="nonzero" mask="url(#icon:cheese-b)">
      <g transform="translate(11 13)">
        <path fill="#993917" d="M36.7293659,1.5 L4,33.4670388 L17.9230529,47.5 L34.9360529,47.4159245 C38.421831,47.716438 41.6993487,46.5009566 44.7686058,43.7694803 C47.8378628,41.0380041 49.2373974,37.1861983 48.9672094,32.214063 L48.9672094,14.1675254 L36.7293659,1.5 Z"/>
        <path fill="#FFA800" d="M34.8333333,1.43854134 C34.8333333,1.43854134 25.6897273,0.451823329 15.8333333,1.43854134 C5.88558586,2.43451163 0,4.61901548 0,4.61901548 L3.16666667,33.2432827 C3.16666667,33.2432827 11.1313131,34.9458966 22.1666667,33.2432827 C29.4653535,32.1172021 38,33.2432827 38,33.2432827 L34.8333333,1.43854134 Z"/>
        <path fill="#DD931D" d="M36.8010204,1.44328368 C36.8010204,1.44328368 29.565898,0.553169712 21,1.06506348 L21,33.413559 C32.6091309,31.9111328 40,33.6072102 40,33.6072102 L36.8010204,1.44328368 Z"/>
        <path fill="#E67E22" d="M7,13 C8.65685425,13 10,10.9852814 10,8.5 C10,6.01471863 8.65685425,4 7,4 C5.34314575,4 4,6.01471863 4,8.5 C4,10.9852814 5.34314575,13 7,13 Z M12.5,29 C13.3284271,29 14,28.3284271 14,27.5 C14,26.6715729 13.3284271,26 12.5,26 C11.6715729,26 11,26.6715729 11,27.5 C11,28.3284271 11.6715729,29 12.5,29 Z M17.5,10 C18.3284271,10 19,9.32842712 19,8.5 C19,7.67157288 18.3284271,7 17.5,7 C16.6715729,7 16,7.67157288 16,8.5 C16,9.32842712 16.6715729,10 17.5,10 Z M9,24 C10.1045695,24 11,23.1045695 11,22 C11,20.8954305 10.1045695,20 9,20 C7.8954305,20 7,20.8954305 7,22 C7,23.1045695 7.8954305,24 9,24 Z"/>
        <path fill="#D35400" d="M25,29 C26.6568542,29 28,26.9852814 28,24.5 C28,22.0147186 26.6568542,20 25,20 C23.3431458,20 22,22.0147186 22,24.5 C22,26.9852814 23.3431458,29 25,29 Z M31.5,8 C32.3284271,8 33,7.32842712 33,6.5 C33,5.67157288 32.3284271,5 31.5,5 C30.6715729,5 30,5.67157288 30,6.5 C30,7.32842712 30.6715729,8 31.5,8 Z M28.5,17 C29.3284271,17 30,16.3284271 30,15.5 C30,14.6715729 29.3284271,14 28.5,14 C27.6715729,14 27,14.6715729 27,15.5 C27,16.3284271 27.6715729,17 28.5,17 Z M36.1694367,31.7096194 C37.2740062,31.7096194 38.1694367,31.0380465 38.1694367,30.2096194 C38.1694367,29.3811922 37.2740062,28.7096194 36.1694367,28.7096194 C35.0648672,28.7096194 34.1694367,29.3811922 34.1694367,30.2096194 C34.1694367,31.0380465 35.0648672,31.7096194 36.1694367,31.7096194 Z"/>
      </g>
    </g>
  </g>
</svg>
