<svg xmlns="http://www.w3.org/2000/svg" xmlns:xlink="http://www.w3.org/1999/xlink" width="60" height="60" viewBox="0 0 60 60">
  <defs>
    <path id="fish-a" d="M0,41 L0,19 C0,12 0.0432,8 4,4 C7.9568,1.12056853e-09 12,0 19,0 C26.3531093,0 34,8.57252759e-16 41,0 C48,0 52,0 56,4 C60,8 60,12 60,19 L60,41 C60,48 60,52 56,56 C52,60 48,60 41,60 L19,60 C12,60 8,60 4,56 C0,52 0,48 0,41 Z"/>
  </defs>
  <g fill="none" fill-rule="evenodd">
    <mask id="fish-b" fill="#fff">
      <use xlink:href="#fish-a"/>
    </mask>
    <use fill="#590F38" xlink:href="#fish-a"/>
    <g mask="url(#fish-b)">
      <g transform="translate(8 19)">
        <polygon fill="#380222" fill-rule="nonzero" points=".475 15.567 25.685 41.019 51.927 41.019 52.03 20.764 42.135 10.831 3.445 10.831"/>
        <path fill="#00BAFF" d="M28.2372881,18.8041077 C28.2372881,18.8041077 25.5277533,21.4465524 21.9261113,21.508021 C18.3244693,21.5694896 7.94915254,15.3627727 7.94915254,15.3627727 L10.7907833,12.9661017 L28.2372881,18.8041077 Z"/>
        <path fill="#35CCFF" fill-rule="nonzero" d="M28.2372881,2.85690923 C28.2372881,2.85690923 25.5277533,0.214464525 21.9261113,0.152995945 C18.3244693,0.0915273655 7.94915254,6.29824426 7.94915254,6.29824426 L10.7907833,8.69491525 L28.2372881,2.85690923 Z"/>
        <path fill="#B9EAFF" fill-rule="nonzero" d="M1.8195818,10.8305605 L0.474576271,15.5524149 L5.05738089,11.3989788 C5.05738089,11.3989788 7.24918538,12.9493543 21.0973058,18.117235 C34.9454262,23.2851156 42.1186441,10.8305605 42.1186441,10.8305605 C42.1186441,10.8305605 34.9455349,-1.62410753 21.0973058,3.54377314 C7.24907665,8.7116538 5.05738089,10.2620293 5.05738089,10.2620293 L0.474576271,6.10859322 L1.8195818,10.8305605 Z"/>
        <path fill="#35CCFF" d="M0.466918945,15.5704956 L5.01611328,11.5568848 C5.01611328,11.5568848 7.56079102,12.9762573 21.1117554,18.1607056 C34.6627197,23.3451538 42.1250916,10.8355713 42.1250916,10.8355713 L1.8183136,10.8355713 L0.466918945,15.5704956 Z"/>
        <path fill="#35CCFF" d="M42.1260376,10.8424988 C42.1260376,10.8424988 38.4933472,4.57299805 31.6402283,2.8104248 C30.0414865,5.09001803 29.4087524,7.77119612 29.4087524,10.8424988 C29.4087524,13.9138014 30.3236126,16.44523 31.9223543,18.7248232 C38.6523177,16.7242809 42.1260376,10.8424988 42.1260376,10.8424988 Z"/>
        <path fill="#00BAFF" fill-rule="nonzero" d="M31.4825439,18.9490356 C38.6659546,16.9190674 42.1295776,10.8834076 42.1295776,10.8336182 L29.4044189,10.8336182 C29.4044189,14.5183315 29.8726176,16.2141545 31.4825439,18.9490356 Z"/>
        <circle cx="35.178" cy="7.093" r="1.602" fill="#008CC3" fill-rule="nonzero"/>
      </g>
    </g>
  </g>
</svg>
