<svg xmlns="http://www.w3.org/2000/svg" xmlns:xlink="http://www.w3.org/1999/xlink" width="60" height="60" viewBox="0 0 60 60">
  <defs>
    <path id="grapes-a" d="M0,41 L0,19 C0,12 0.0432,8 4,4 C7.9568,1.12056853e-09 12,0 19,0 C26.3531093,0 34,8.57252759e-16 41,0 C48,0 52,0 56,4 C60,8 60,12 60,19 L60,41 C60,48 60,52 56,56 C52,60 48,60 41,60 L19,60 C12,60 8,60 4,56 C0,52 0,48 0,41 Z"/>
  </defs>
  <g fill="none" fill-rule="evenodd">
    <mask id="grapes-b" fill="#fff">
      <use xlink:href="#grapes-a"/>
    </mask>
    <use fill="#B9EAFF" xlink:href="#grapes-a"/>
    <g fill-rule="nonzero" mask="url(#grapes-b)">
      <g transform="translate(15 8)">
        <polygon fill="#35CCFF" points="21.725 52.156 44.971 51.035 44.971 23.332 23.726 2.095 19.867 5.985 15.756 1.478 15.756 9.29 6.267 17.117 8.592 19.948 2.251 25.724 9.057 32.431 6.866 33.953 12.591 39.558 10.954 41.346"/>
        <rect width="2.686" height="13.045" x="13.104" y="1.445" fill="#39B54A"/>
        <path fill="#009245" d="M14.5045117,14.4914844 L15.7890625,14.4914844 L15.7890625,10.2427344 L18.1943457,7.83745117 C18.8188965,8.90672852 19.9781934,9.62731445 21.3033496,9.62731445 C23.2876465,9.62731445 24.9019824,8.01297852 24.9019824,6.02868164 C24.9019824,4.70352539 24.1813965,3.54422852 23.1121191,2.91967773 L23.8310937,2.20070312 L21.9320898,0.301699219 L15.7890625,6.44472656 L15.7890625,1.44563477 L14.5045117,1.44563477 L14.5045117,14.4914844 Z M21.3033496,6.94176758 C20.7998633,6.94176758 20.3902637,6.53216797 20.3902637,6.02868164 C20.3902637,5.52519531 20.7998633,5.1155957 21.3033496,5.1155957 C21.8068359,5.1155957 22.2164355,5.52519531 22.2164355,6.02868164 C22.2164355,6.53216797 21.8068359,6.94176758 21.3033496,6.94176758 Z"/>
        <path fill="#662E57" d="M9.95229492,23.1975758 C9.61664008,25.3777551 7.73242656,27.047168 5.45830078,27.047168 C2.94696926,27.047168 0.911132812,25.0113315 0.911132812,22.5 C0.911132812,19.9886685 2.94696926,17.952832 5.45830078,17.952832 C7.73242656,17.952832 9.61664008,19.6222449 9.95229492,21.8024242 C10.2879498,19.6222449 12.1721633,17.952832 14.4462891,17.952832 C16.9576206,17.952832 18.993457,19.9886685 18.993457,22.5 C18.993457,25.0113315 16.9576206,27.047168 14.4462891,27.047168 C12.1721633,27.047168 10.2879498,25.3777551 9.95229492,23.1975758 Z M12.7146815,34.3171876 C13.2627897,34.082968 13.8662545,33.9533203 14.5,33.9533203 C17.0113315,33.9533203 19.047168,35.9891568 19.047168,38.5004883 C19.047168,41.0118198 17.0113315,43.0476562 14.5,43.0476562 C11.9886685,43.0476562 9.95283203,41.0118198 9.95283203,38.5004883 C9.95283203,37.0037873 10.6759429,35.6759779 11.7918615,34.8473632 C11.2437532,35.0815828 10.6402885,35.2112305 10.006543,35.2112305 C7.49521144,35.2112305 5.459375,33.175394 5.459375,30.6640625 C5.459375,28.152731 7.49521144,26.1168945 10.006543,26.1168945 C12.5178745,26.1168945 14.5537109,28.152731 14.5537109,30.6640625 C14.5537109,32.1607635 13.8306001,33.4885729 12.7146815,34.3171876 Z M9.97001953,19.0259766 C7.45868801,19.0259766 5.42285156,16.9901401 5.42285156,14.4788086 C5.42285156,11.9674771 7.45868801,9.93164062 9.97001953,9.93164062 C12.4813511,9.93164062 14.5171875,11.9674771 14.5171875,14.4788086 C14.5171875,16.9901401 12.4813511,19.0259766 9.97001953,19.0259766 Z"/>
        <path fill="#590F38" d="M17.2097772,34.8480631 C18.3249555,35.6768067 19.0474902,37.0042097 19.0474902,38.5003809 C19.0474902,41.0119043 17.0115234,43.0478711 14.5,43.0478711 C14.4879687,43.0478711 14.4762598,43.0471191 14.4642285,43.0470117 L14.4642285,33.95375 C14.4761523,33.95375 14.4879687,33.9528906 14.5,33.9528906 C15.1331785,33.9528906 15.7361311,34.0822949 16.2838539,34.3160996 C15.1687672,33.4874109 14.4462891,32.1601086 14.4462891,30.6640625 C14.4462891,28.152731 16.4821255,26.1168945 18.993457,26.1168945 C21.5047886,26.1168945 23.540625,28.152731 23.540625,30.6640625 C23.540625,33.175394 21.5047886,35.2112305 18.993457,35.2112305 C18.360343,35.2112305 17.7574495,35.0818411 17.2097772,34.8480631 Z M19.0299805,19.0259766 C16.5186489,19.0259766 14.4828125,16.9901401 14.4828125,14.4788086 C14.4828125,11.9674771 16.5186489,9.93164062 19.0299805,9.93164062 C21.541312,9.93164062 23.5771484,11.9674771 23.5771484,14.4788086 C23.5771484,16.9901401 21.541312,19.0259766 19.0299805,19.0259766 Z M23.5416992,27.047168 C21.0303677,27.047168 18.9945313,25.0113315 18.9945313,22.5 C18.9945313,19.9886685 21.0303677,17.952832 23.5416992,17.952832 C26.0530307,17.952832 28.0888672,19.9886685 28.0888672,22.5 C28.0888672,25.0113315 26.0530307,27.047168 23.5416992,27.047168 Z M18.9937793,22.5 C18.9937793,25.0055078 16.9674805,27.0373926 14.4641211,27.0470605 L14.4641211,17.9529395 C16.967373,17.9626074 18.9937793,19.9944922 18.9937793,22.5 Z"/>
      </g>
    </g>
  </g>
</svg>
