<svg xmlns="http://www.w3.org/2000/svg" xmlns:xlink="http://www.w3.org/1999/xlink" width="60" height="60" viewBox="0 0 60 60">
  <defs>
    <path id="leftover-a" d="M0,41 L0,19 C0,12 0.0432,8 4,4 C7.9568,1.12056853e-09 12,0 19,0 C26.3531093,0 34,8.57252759e-16 41,0 C48,0 52,0 56,4 C60,8 60,12 60,19 L60,41 C60,48 60,52 56,56 C52,60 48,60 41,60 L19,60 C12,60 8,60 4,56 C0,52 0,48 0,41 Z"/>
  </defs>
  <g fill="none" fill-rule="evenodd">
    <mask id="leftover-b" fill="#fff">
      <use xlink:href="#leftover-a"/>
    </mask>
    <use fill="#345065" xlink:href="#leftover-a"/>
    <g fill-rule="nonzero" mask="url(#leftover-b)">
      <g transform="translate(7 14)">
        <path fill="#2C3E50" d="M35.5779189,9 L0.505310059,24.5250854 C9.09204515,34.4216946 15.6163148,41.5867285 20.0781191,46.0201872 C20.2321101,46.1732 26.2183588,46.1732 38.0368652,46.0201872 C42.6113281,46.0842334 46.0296224,45.0295307 48.291748,42.8560791 C51.5991047,39.6783689 53.1799447,35.8866616 53.034268,31.480957 L53.034268,26.3720803 L35.5779189,9 Z"/>
        <path fill="#CDD1D3" d="M2,23 C2,11.9543719 11.1782312,3 22.5,3 C33.8217688,3 43,11.9543719 43,23 L2,23 Z"/>
        <path fill="#A3A7A8" d="M23,3 L23,23 L43,23 C43,11.9543719 34.0456281,3 23,3 Z"/>
        <path fill="#99ABD5" d="M3.69642857,26 C1.65497321,26 0,24.6568333 0,23 L46,23 C46,24.6568333 44.3450268,26 42.3035714,26 L3.69642857,26 Z M23,3 C21.8954305,3 21,2.32842712 21,1.5 C21,0.671572875 21.8954305,0 23,0 C24.1045695,0 25,0.671572875 25,1.5 C25,2.32842712 24.1045695,3 23,3 Z"/>
        <path fill="#8092B7" d="M23,23 L46,23 C46,24.6568333 44.3450268,26 42.3035714,26 L23,26 L23,23 Z M25,1.5 C25,2.32835294 24.1044706,3 23,3 L23,0 C24.1044706,0 25,0.671647059 25,1.5 Z"/>
      </g>
    </g>
  </g>
</svg>
