<svg xmlns="http://www.w3.org/2000/svg" xmlns:xlink="http://www.w3.org/1999/xlink" width="60" height="60" viewBox="0 0 60 60">
  <defs>
    <path id="lemon-a" d="M0,41 L0,19 C0,12 0.0432,8 4,4 C7.9568,1.12056853e-09 12,0 19,0 C26.3531093,0 34,8.57252759e-16 41,0 C48,0 52,0 56,4 C60,8 60,12 60,19 L60,41 C60,48 60,52 56,56 C52,60 48,60 41,60 L19,60 C12,60 8,60 4,56 C0,52 0,48 0,41 Z"/>
  </defs>
  <g fill="none" fill-rule="evenodd">
    <mask id="lemon-b" fill="#fff">
      <use xlink:href="#lemon-a"/>
    </mask>
    <use fill="#00447D" xlink:href="#lemon-a"/>
    <g fill-rule="nonzero" mask="url(#lemon-b)">
      <g transform="translate(15 9)">
        <polygon fill="#062964" points="15.471 50.971 45.034 50.971 45.034 21.989 25.035 1.718 24.226 11.975 1.153 37.112"/>
        <path fill="#72BD39" d="M22.6211419,0 C22.6211419,0 25.6960022,1.41722442 25.9802678,6.29186782 C26.2647511,11.1671056 23.3790745,13 23.3790745,13 C23.3790745,13 20.3037786,11.5827756 20.0197309,6.70801331 C19.7352475,1.83265672 22.6211419,0 22.6211419,0 Z"/>
        <path fill="#51A448" d="M26.9769751,6.29187163 C26.645264,1.41707964 22.6307983,0.0408782959 22.6307983,0.00199890137 C22.6307983,-0.023920695 23.0477455,4.30014861 23.8816399,12.9742068 C23.9191322,12.9909664 23.9415004,13 23.9415004,13 C23.9415004,13 27.3089405,11.1670202 26.9769751,6.29187163 Z"/>
        <path fill="#F3D64E" d="M21.3461196,32.3468648 C26.668894,27.0240114 28.4029159,19.8820684 25.8220012,15.2836693 C25.9021326,15.2227679 25.9806728,15.1577761 26.0539846,15.0847171 C26.9204272,14.2180079 26.9204272,12.8129572 26.0539846,11.9460208 C25.1873146,11.0793116 23.7820021,11.0793116 22.9155595,11.9460208 C22.842475,12.0190798 22.7774606,12.0975926 22.7166516,12.1779235 C18.1181291,9.59711158 10.9759729,11.3312117 5.65388041,16.6536107 C0.331105985,21.9762369 -1.40291594,29.117839 1.17799884,33.7163517 C1.09809471,33.7774804 1.01944085,33.8421314 0.946015437,33.915304 C0.0795727834,34.7820132 0.0795727834,36.187291 0.946015437,37.0535458 C1.81291274,37.920255 3.21777056,37.920255 4.08444054,37.0535458 C4.15775229,36.9801459 4.22253943,36.9019739 4.2833484,36.8216431 C8.88198455,39.4030231 16.0239135,37.6691502 21.3461196,32.3468648 Z"/>
        <path fill="#EEBB46" d="M25.8271729,15.352671 C25.9069558,15.2919543 25.9851543,15.2271596 26.0581471,15.1543223 C26.9208202,14.2902423 26.9208202,12.8894541 26.0581471,12.0251476 C26.0492069,12.0161987 26.0394745,12.0087224 26.0301948,12 L1,36.9910316 C1.02014375,37.0128942 1.03825049,37.0357762 1.05952592,37.0568458 C1.92265169,37.9209257 3.32139754,37.9209257 4.18429698,37.0568458 C4.25728978,36.9836686 4.32179505,36.9057338 4.38233947,36.8256466 C8.96085561,39.3986293 16.0719392,37.6697898 21.3708773,32.3636502 C26.6703813,27.0571708 28.396746,19.9371203 25.8271729,15.352671 Z"/>
      </g>
    </g>
  </g>
</svg>
