<svg xmlns="http://www.w3.org/2000/svg" xmlns:xlink="http://www.w3.org/1999/xlink" width="60" height="60" viewBox="0 0 60 60">
  <defs>
    <path id="lettuce-a" d="M0,41 L0,19 C0,12 0.0432,8 4,4 C7.9568,1.12056853e-09 12,0 19,0 C26.3531093,0 34,8.57252759e-16 41,0 C48,0 52,0 56,4 C60,8 60,12 60,19 L60,41 C60,48 60,52 56,56 C52,60 48,60 41,60 L19,60 C12,60 8,60 4,56 C0,52 0,48 0,41 Z"/>
  </defs>
  <g fill="none" fill-rule="evenodd">
    <mask id="lettuce-b" fill="#fff">
      <use xlink:href="#lettuce-a"/>
    </mask>
    <use fill="#345F41" xlink:href="#lettuce-a"/>
    <g fill-rule="nonzero" mask="url(#lettuce-b)">
      <g transform="translate(12 8)">
        <polygon fill="#2D5036" points="35.392 12.213 6.844 42.186 16.698 51.99 47.997 51.99 47.997 25.089"/>
        <path fill="#6AAC4B" d="M8.11701728,36.8532714 C8.50353988,36.4546723 8.76447076,35.9464681 8.86550649,35.3926434 C9.5298305,31.752672 12.3766388,17.5003379 16.403447,16.4185918 C21.0229732,15.1775606 22.0322058,15.8581947 24.0896608,12.455411 C26.1471157,9.05282067 32.4551946,9.31281862 35.6189814,12.455411 C38.6663616,15.7180471 38.9184823,22.2232153 35.6189814,24.3449533 C32.3194805,26.4666913 32.9793057,27.5074563 31.7758745,32.2713148 C30.7269024,36.4239364 16.9063763,39.3596903 13.3766864,40.0447704 C12.8394537,40.1489629 12.3468342,40.4180463 11.9603116,40.8166454 L10.6389742,42.1792667 C9.57781778,43.2735778 7.85721111,43.2735778 6.79586728,42.1792667 C5.73471091,41.0849556 5.73471091,39.3105903 6.79586728,38.2160859 L8.11701728,36.8532714 Z"/>
        <path fill="#86C867" d="M4.06860517,34.8324502 C4.18673798,34.2992378 4.15085403,33.7417969 3.96397324,33.2311225 C2.73592491,29.8748328 -1.87463008,16.6033084 0.84437873,13.5837745 C3.96361796,10.1196779 5.10604221,10.1484139 5.11492438,6.25233814 C5.12380654,2.3562624 10.3299996,-0.760184994 14.4001636,0.163686803 C18.4346212,1.24832995 21.7885273,6.48635812 20.159005,9.9806933 C18.5293051,13.4750285 19.5647881,13.9858907 20.903153,18.5549147 C22.0697367,22.5375741 12.3609958,32.2602965 9.85018498,34.6898971 C9.46807417,35.0597088 9.20160918,35.5420228 9.08329872,36.0752353 L8.67916015,37.8979992 C8.35460578,39.3620327 6.96881017,40.2706913 5.58408041,39.9275497 C4.19935066,39.584408 3.33991223,38.1192476 3.66446659,36.6552142 L4.06860517,34.8324502 Z"/>
        <path fill="#5D993D" d="M35.5865022,12.4588904 C32.379525,9.31184488 25.9853315,9.0514785 23.8997892,12.4588904 C22.1302325,15.3502154 21.1245132,15.2979486 18,15.9749012 L18,39 C23.4612477,37.6551931 30.9259537,35.2942799 31.6907412,32.3026799 C32.910601,27.532071 32.2415782,26.4898312 35.5863122,24.3650867 C38.9310461,22.2405357 38.6754836,15.7261496 35.5865022,12.4588904 Z"/>
        <path fill="#78AF5B" d="M21.8750896,18.665786 C20.1492382,13.9916416 18.8135535,13.4688123 20.9153669,9.89393539 C22.3497961,7.45387294 20.7891298,4.55568788 18,2.37194824 L18,25.5835755 C20.6287559,22.7607581 22.5131483,20.3935631 21.8750896,18.665786 Z"/>
        <path fill="#6AAC4B" d="M5.70317257,38 C5.64978123,38 5.59551174,37.9935052 5.54124225,37.9799588 C5.16363902,37.8858766 4.92987628,37.4861661 5.01892039,37.0870124 L11.613629,7.57209091 C11.7026731,7.17330832 12.0802764,6.92539137 12.4587577,7.02021589 C12.836361,7.11429815 13.0701237,7.51400857 12.9810796,7.91316228 L6.38637096,37.4280838 C6.30997217,37.7695263 6.02158868,38 5.70317257,38 Z"/>
        <path fill="#BFF796" d="M8.74808627,41 C8.55711987,41 8.36615346,40.9275478 8.22026335,40.7830158 C7.92754795,40.4926481 7.92642572,40.0208705 8.21783185,39.7293853 L29.7216593,18.2192672 C30.0130654,17.9275958 30.4870212,17.927037 30.7797366,18.2168459 C31.072452,18.5072136 31.0735743,18.9789913 30.7821681,19.2704765 L9.2783407,40.7805945 C9.13226355,40.9268028 8.93998787,41 8.74808627,41 Z"/>
        <path fill="#A6E079" d="M30.7852422,18.2110756 C30.4998433,17.928979 30.0375518,17.9295225 29.7536118,18.213431 L18.0193481,29.9416392 L18.0193481,31.9962158 L30.7876129,19.2360086 C31.0717353,18.9524625 31.0706411,18.4933534 30.7852422,18.2110756 Z"/>
      </g>
    </g>
  </g>
</svg>
