<svg xmlns="http://www.w3.org/2000/svg" xmlns:xlink="http://www.w3.org/1999/xlink" width="60" height="60" viewBox="0 0 60 60">
  <defs>
    <path id="pepper-a" d="M0,41 L0,19 C0,12 0.0432,8 4,4 C7.9568,1.12056853e-09 12,0 19,0 C26.3531093,0 34,8.57252759e-16 41,0 C48,0 52,0 56,4 C60,8 60,12 60,19 L60,41 C60,48 60,52 56,56 C52,60 48,60 41,60 L19,60 C12,60 8,60 4,56 C0,52 0,48 0,41 Z"/>
  </defs>
  <g fill="none" fill-rule="evenodd">
    <mask id="pepper-b" fill="#fff">
      <use xlink:href="#pepper-a"/>
    </mask>
    <use fill="#A5C63B" xlink:href="#pepper-a"/>
    <g fill-rule="nonzero" mask="url(#pepper-b)">
      <g transform="translate(10 4)">
        <polygon fill="#889920" points="35.546 13 4.923 45.146 16.01 56.042 49.98 56.042 49.98 27.523"/>
        <path fill="#2F7F40" d="M19.5,40.6164564 C18.6749499,43.2329427 16.8919738,45.255485 14.6269199,45.7843588 L9.98687266,46.8677849 C6.45116319,47.6933475 3.07954553,44.5670037 2.45599669,39.8844841 L0.099872855,22.1888581 C-0.523675986,17.5065884 1.8373706,13.0414537 5.37308007,12.2156412 L10.0131273,11.1322151 C13.5488368,10.3066525 16.9204545,13.4329963 17.5440033,18.1155159 L19.5,32.8059941 L21.4559967,18.1155159 C22.0795455,13.4329963 25.4511632,10.3066525 28.9868727,11.1322151 L33.6269199,12.2156412 C37.1626294,13.0414537 39.523676,17.5065884 38.9001271,22.1888581 L36.5440033,39.8844841 C35.9204545,44.5670037 32.5488368,47.6933475 29.0131273,46.8677849 L24.3730801,45.7843588 C22.1080262,45.255485 20.3250501,43.2329427 19.5,40.6164564 Z"/>
        <path fill="#23442C" d="M18.9936509,15 C18.8460652,15 18.6960383,14.972928 18.5491184,14.9156134 C17.8560207,14.6458691 17.4929378,13.8095641 17.7383961,13.0476461 C20.0589308,5.84552116 14.9469188,2.89028418 14.7280926,2.76785049 C14.0727235,2.401525 13.811508,1.52058781 14.1450738,0.800131424 C14.4781957,0.0799189285 15.279375,-0.207141724 15.9356318,0.159427656 C18.5091705,1.59790151 22.7225744,6.3472066 20.2491276,14.0249206 C20.0553798,14.6248944 19.5420481,15 18.9936509,15 Z"/>
        <path fill="#345F41" d="M22.2275545,46 L18.7724455,46 C14.4799076,46 11,42.4620368 11,38.0978862 L11,17.9021138 C11,13.5379632 14.4799076,10 18.7724455,10 L22.2275545,10 C26.5200924,10 30,13.5379632 30,17.9021138 L30,38.0978862 C30,42.4620368 26.5203308,46 22.2275545,46 Z"/>
        <path fill="#2D5036" d="M21.6826172,10 L19,10 L19,46 L21.6826172,46 C26.8029047,46 30,42.4620606 30,38.0979394 L30,17.9020606 C30.0002844,13.5379394 26.8031891,10 21.6826172,10 Z"/>
      </g>
    </g>
  </g>
</svg>
