<svg xmlns="http://www.w3.org/2000/svg" xmlns:xlink="http://www.w3.org/1999/xlink" width="60" height="60" viewBox="0 0 60 60">
  <defs>
    <path id="salame-a" d="M0,41 L0,19 C0,12 0.0432,8 4,4 C7.9568,1.12056853e-09 12,0 19,0 C26.3531093,0 34,8.57252759e-16 41,0 C48,0 52,0 56,4 C60,8 60,12 60,19 L60,41 C60,48 60,52 56,56 C52,60 48,60 41,60 L19,60 C12,60 8,60 4,56 C0,52 0,48 0,41 Z"/>
  </defs>
  <g fill="none" fill-rule="evenodd">
    <mask id="salame-b" fill="#fff">
      <use xlink:href="#salame-a"/>
    </mask>
    <use fill="#590F38" xlink:href="#salame-a"/>
    <g mask="url(#salame-b)">
      <g transform="translate(11 19)">
        <path fill="#420529" fill-rule="nonzero" d="M48.979248,17.435791 L34.9631348,3.37573242 L3.15136719,19.291748 L25.0275879,41.1142578 C25.0478689,41.1144038 33.0317556,41.1144525 48.979248,41.1144038 L48.979248,17.435791 Z"/>
        <polygon fill="#FFA1C3" points="39 13 37 10.5 39 8"/>
        <path fill="#FF81AE" fill-rule="nonzero" d="M7.05172205,10 L7.05172205,0.0609375 L27.1106734,0.0609375 C32.949843,0.0609375 37.7155529,4.46684407 37.987729,10 L39,10 L38.9998999,13.0609375 L37.9374397,11.6255639 C37.3518988,16.8615634 32.7280091,20.9390625 27.1106734,20.9390625 L7.05172205,20.9390625 L7.05172205,19.9997335 C7.0344961,19.9999111 7.01725534,20 7,20 C3.13397638,20 0,15.5362052 0,10.0298165 C0,10.0198777 0.000293562592,10.0099388 0.000293562592,10 L7.05172205,10 Z"/>
        <path fill="#FF3F84" fill-rule="nonzero" d="M7,10 L7,21 L27.0924747,21 C32.762207,21 38.2440186,16.3878174 38,10.0327982 C38,10.0255097 27.6666667,10.014577 7,10 Z"/>
        <ellipse cx="7" cy="10.5" fill="#FFA1C3" fill-rule="nonzero" rx="7" ry="10.5"/>
        <path fill="#FFF" fill-rule="nonzero" d="M9.58090909,9.10985294 C10.3310122,9.10985294 10.9390909,8.42129322 10.9390909,7.57191176 C10.9390909,6.72253031 10.3310122,6.03397059 9.58090909,6.03397059 C8.83080599,6.03397059 8.22272727,6.72253031 8.22272727,7.57191176 C8.22272727,8.42129322 8.83080599,9.10985294 9.58090909,9.10985294 Z M3,7 C2.44771525,7 2,6.55228475 2,6 C2,5.44771525 2.44771525,5 3,5 C3.55228475,5 4,5.44771525 4,6 C4,6.55228475 3.55228475,7 3,7 Z M3.5,12.0758824 C2.67157288,12.0758824 2,11.163465 2,10.0379412 C2,8.91241734 2.67157288,8 3.5,8 C4.32842712,8 5,8.91241734 5,10.0379412 C5,11.163465 4.32842712,12.0758824 3.5,12.0758824 Z"/>
        <path fill="#E0E0E0" fill-rule="nonzero" d="M3.167,17.9046429 C2.54733651,17.9046429 2.045,17.3664252 2.045,16.7025 C2.045,16.0385748 2.54733651,15.5003571 3.167,15.5003571 C3.78666349,15.5003571 4.289,16.0385748 4.289,16.7025 C4.289,17.3664252 3.78666349,17.9046429 3.167,17.9046429 Z M5,10 C5,11.1244926 4.32839118,12.0361071 3.4999498,12.0361071 C2.67150842,12.0361071 2,11.1243564 2,10 L5,10 Z M9.15,15.8574643 C8.16511061,15.8574643 7.3667,15.0020244 7.3667,13.9467857 C7.3667,12.8915471 8.16511061,12.0361071 9.15,12.0361071 C10.1348894,12.0361071 10.9333,12.8915471 10.9333,13.9467857 C10.9333,15.0020244 10.1348894,15.8574643 9.15,15.8574643 Z"/>
      </g>
    </g>
  </g>
</svg>
