<svg xmlns="http://www.w3.org/2000/svg" xmlns:xlink="http://www.w3.org/1999/xlink" width="60" height="60" viewBox="0 0 60 60">
  <defs>
    <path id="sandwich-a" d="M0,41 L0,19 C0,12 0.0432,8 4,4 C7.9568,1.12056853e-09 12,0 19,0 C26.3531093,0 34,8.57252759e-16 41,0 C48,0 52,0 56,4 C60,8 60,12 60,19 L60,41 C60,48 60,52 56,56 C52,60 48,60 41,60 L19,60 C12,60 8,60 4,56 C0,52 0,48 0,41 Z"/>
  </defs>
  <g fill="none" fill-rule="evenodd">
    <mask id="sandwich-b" fill="#fff">
      <use xlink:href="#sandwich-a"/>
    </mask>
    <use fill="#590F38" xlink:href="#sandwich-a"/>
    <g fill-rule="nonzero" mask="url(#sandwich-b)">
      <g transform="translate(11 12)">
        <polygon fill="#3D0526" points="48.99 47.976 48.99 16.082 35.173 1.96 5.953 32.594 20.996 47.976"/>
        <path fill="#6EBA3B" d="M20,20.4999652 C20,21.6660811 18.7938462,22.7037444 18.5757143,23.7765589 C18.3407692,24.9319286 19.0358242,26.3054365 18.5835165,27.3046344 C18.0861538,28.4033604 16.5254945,28.8943724 15.8123077,29.7411145 C15.0124176,30.6907994 14.8074725,32.1995892 13.8016484,32.7437298 C12.7132967,33.3325625 11.2447253,32.7223378 10,32.7223378 C8.75505495,32.7223378 7.28648352,33.3325625 6.19802198,32.7435289 C5.19230769,32.1993884 4.98747253,30.690699 4.18758242,29.7410141 C3.47450549,28.8943724 1.91384615,28.4034608 1.41648352,27.3047348 C0.964175824,26.3055369 1.65923077,24.932029 1.42428571,23.7766594 C1.20615385,22.7038448 0,21.6660811 0,20.4999652 C0,19.3338493 1.20615385,18.296186 1.42428571,17.2233715 C1.65923077,16.0680018 0.964175824,14.6944939 1.41648352,13.695296 C1.91384615,12.59657 3.47450549,12.105558 4.18769231,11.2588159 C4.98758242,10.309131 5.19252747,8.80034116 6.19835165,8.25620063 C7.2867033,7.66746829 8.75516484,8.27769307 10,8.27769307 C11.2449451,8.27769307 12.7135165,7.66746829 13.801978,8.25650192 C14.8076923,8.80064246 15.0125275,10.3093318 15.8124176,11.2590168 C16.5254945,12.1056584 18.0861538,12.59657 18.5835165,13.695296 C19.0358242,14.6944939 18.3407692,16.0680018 18.5757143,17.2233715 C18.7938462,18.296186 20,19.3339498 20,20.4999652 Z"/>
        <path fill="#488057" d="M37,18.5 C37,19.6661126 35.7938462,20.7037731 35.5757143,21.7765846 C35.3407692,22.931951 36.0358242,24.3054551 35.5835165,25.3046502 C35.0861538,26.4033732 33.5254945,26.8943838 32.8123077,27.7411236 C32.0124176,28.6908059 31.8074725,30.1995915 30.8016484,30.7437305 C29.7132967,31.3325616 28.2447253,30.7223385 27,30.7223385 C25.7550549,30.7223385 24.2864835,31.3325616 23.198022,30.7435296 C22.1923077,30.1993906 21.9874725,28.6907054 21.1875824,27.7410231 C20.4745055,26.8943838 18.9138462,26.4034736 18.4164835,25.3047507 C17.9641758,24.3055556 18.6592308,22.9320515 18.4242857,21.776685 C18.2061538,20.7037731 17,19.6661126 17,18.5 C17,17.3338874 18.2061538,16.2962269 18.4242857,15.2234154 C18.6592308,14.068049 17.9641758,12.6945449 18.4164835,11.6953498 C18.9138462,10.5966268 20.4745055,10.1056162 21.1876923,9.25887642 C21.9875824,8.30919415 22.1925275,6.80040853 23.1983516,6.25626952 C24.2867033,5.66743839 25.7552747,6.27766147 27,6.27766147 C28.2449451,6.27766147 29.7135165,5.66743839 30.801978,6.25647038 C31.8076923,6.8006094 32.0125275,8.30929458 32.8124176,9.25897685 C33.5254945,10.1056162 35.0861538,10.5965264 35.5835165,11.6952493 C36.0358242,12.6944444 35.3407692,14.0679485 35.5757143,15.223315 C35.7938462,16.2962269 37,17.3338874 37,18.5 Z"/>
        <circle cx="9" cy="20" r="5" fill="#F1333F"/>
        <circle cx="29" cy="26" r="5" fill="#AE283F"/>
        <path fill="#FFECB3" d="M27.850262,0 L9.14963572,0 C5.75326761,0 3,2.77021416 3,6.18748714 C3,8.88137099 4.7115266,11.1720004 7.09979123,12.0215094 L7.09979123,33 L29.9002088,33 L29.9002088,12.0215094 C32.2884734,11.1720004 34,8.88137099 34,6.18748714 C33.9998978,2.77021416 31.2466301,0 27.850262,0 Z"/>
        <path fill="#FFD863" d="M30.2551483,0 L20,0 L20,33 L32.5034696,33 L32.5034696,12.0215094 C35.122848,11.1718975 37,8.88137099 37,6.18748714 C36.9998879,2.77021416 33.980185,0 30.2551483,0 Z"/>
      </g>
    </g>
  </g>
</svg>
