<svg xmlns="http://www.w3.org/2000/svg" xmlns:xlink="http://www.w3.org/1999/xlink" width="60" height="60" viewBox="0 0 60 60">
  <defs>
    <path id="watermelon-a" d="M0,41 L0,19 C0,12 0.0432,8 4,4 C7.9568,1.12056853e-09 12,0 19,0 C26.3531093,0 34,8.57252759e-16 41,0 C48,0 52,0 56,4 C60,8 60,12 60,19 L60,41 C60,48 60,52 56,56 C52,60 48,60 41,60 L19,60 C12,60 8,60 4,56 C0,52 0,48 0,41 Z"/>
  </defs>
  <g fill="none" fill-rule="evenodd">
    <mask id="watermelon-b" fill="#fff">
      <use xlink:href="#watermelon-a"/>
    </mask>
    <use fill="#345F41" xlink:href="#watermelon-a"/>
    <g fill-rule="nonzero" mask="url(#watermelon-b)">
      <g transform="translate(8 23)">
        <polygon fill="#2D5036" points="41.952 .104 5.627 14.371 28.893 36.982 52.091 36.982 52.091 10.104"/>
        <path fill="#C63C22" d="M42,0 C42,11.5979394 32.5979394,21 21,21 C9.40206061,21 0,11.5979394 0,0 L42,0 Z"/>
        <path fill="#B72F1D" d="M42,0 L20,0 L20,21 C32.1502222,21 42,11.5979394 42,0 Z"/>
        <path fill="#32373B" d="M8,3.92 C8,3.3236 8.44777778,2 9,2 C9.55222222,2 10,3.3236 10,3.92 C10,4.5164 9.55222222,5 9,5 C8.44777778,5 8,4.5164 8,3.92 Z M14,3.92 C14,3.3236 14.4477778,2 15,2 C15.5522222,2 16,3.3236 16,3.92 C16,4.5164 15.5522222,5 15,5 C14.4477778,5 14,4.5164 14,3.92 Z M11,8.92 C11,8.3236 11.4477778,7 12,7 C12.5522222,7 13,8.3236 13,8.92 C13,9.5164 12.5522222,10 12,10 C11.4477778,10 11,9.5164 11,8.92 Z M17,8.92 C17,8.3236 17.4477778,7 18,7 C18.5522222,7 19,8.3236 19,8.92 C19,9.5164 18.5522222,10 18,10 C17.4477778,10 17,9.5164 17,8.92 Z M19,3.92 C19,3.3236 19.4477778,2 20,2 C20.5522222,2 21,3.3236 21,3.92 C21,4.5164 20.5522222,5 20,5 C19.4477778,5 19,4.5164 19,3.92 Z"/>
        <path fill="#86C867" d="M0,0 C0,11.598 9.402,21 21,21 C32.598,21 42,11.598 42,0 L37.5,0 C37.5,9.11272727 30.1127273,16.5 21,16.5 C11.8872727,16.5 4.5,9.11272727 4.5,0 L0,0 Z"/>
        <path fill="#78B259" d="M42,0 L37.2857143,0 C37.2857143,9.11272727 29.5466667,16.5 20,16.5 L20,21 C32.557373,21.4130859 42.2058105,11.2373047 42,0 Z"/>
        <path fill="#292D30" d="M21,3.92 C21,4.5164 20.5522222,5 20,5 L20,2 C20.5522222,2.00024 21,3.3236 21,3.92 Z M28,8.92 C28,8.3236 28.4477778,7 29,7 C29.5522222,7 30,8.3236 30,8.92 C30,9.5164 29.5522222,10 29,10 C28.4477778,10 28,9.5164 28,8.92 Z M31,3.92 C31,3.3236 31.4477778,2 32,2 C32.5522222,2 33,3.3236 33,3.92 C33,4.5164 32.5522222,5 32,5 C31.4477778,5 31,4.5164 31,3.92 Z M25,3.92 C25,3.3236 25.4477778,2 26,2 C26.5522222,2 27,3.3236 27,3.92 C27,4.5164 26.5522222,5 26,5 C25.4477778,5 25,4.5164 25,3.92 Z M22,8.92 C22,8.3236 22.4477778,7 23,7 C23.5522222,7 24,8.3236 24,8.92 C24,9.5164 23.5522222,10 23,10 C22.4477778,10 22,9.5164 22,8.92 Z"/>
      </g>
    </g>
  </g>
</svg>
